<svg width="50" height="50" version="1.1" xmlns="http://www.w3.org/2000/svg">
	<title>symbolCollection</title>
	<defs>
		<symbol id="userIcon" viewBox="-5 -5 60 60" style="fill:var(--text-color)">
			<ellipse cx="25" cy="16" rx="8.5" ry="8.5"/>
			<path d="m24 26a13 16 0 0 0-13 16 13 16 0 0 0 0.84 5.8h24a13 16 0 0 0 0.84-5.8 13 16 0 0 0-13-16z"/>
		</symbol>
		<symbol id="settingsIcon" style="fill:none;stroke-linecap:round;stroke-linejoin:round;stroke-width:2;stroke:var(--text-color)">
			<circle cx="12" cy="12" r="3" />
			<path d="m19 15a1.6 1.6 0 0 0 0.33 1.8l0.06 0.06a2 2 0 0 1 0 2.8 2 2 0 0 1-2.8 0l-0.06-0.06a1.6 1.6 0 0 0-1.8-0.33 1.6 1.6 0 0 0-1 1.5v0.17a2 2 0 0 1-2 2 2 2 0 0 1-2-2v-0.09a1.6 1.6 0 0 0-1.1-1.5 1.6 1.6 0 0 0-1.8 0.33l-0.06 0.06a2 2 0 0 1-2.8 0 2 2 0 0 1 0-2.8l0.06-0.06a1.6 1.6 0 0 0 0.33-1.8 1.6 1.6 0 0 0-1.5-1h-0.17a2 2 0 0 1-2-2 2 2 0 0 1 2-2h0.09a1.6 1.6 0 0 0 1.5-1.1 1.6 1.6 0 0 0-0.33-1.8l-0.06-0.06a2 2 0 0 1 0-2.8 2 2 0 0 1 2.8 0l0.06 0.06a1.6 1.6 0 0 0 1.8 0.33h0.08a1.6 1.6 0 0 0 1-1.5v-0.17a2 2 0 0 1 2-2 2 2 0 0 1 2 2v0.09a1.6 1.6 0 0 0 1 1.5 1.6 1.6 0 0 0 1.8-0.33l0.06-0.06a2 2 0 0 1 2.8 0 2 2 0 0 1 0 2.8l-0.06 0.06a1.6 1.6 0 0 0-0.33 1.8v0.08a1.6 1.6 0 0 0 1.5 1h0.17a2 2 0 0 1 2 2 2 2 0 0 1-2 2h-0.09a1.6 1.6 0 0 0-1.5 1z" />
		</symbol>
		<symbol id="editIcon" viewBox="0 0 24 24" style="fill:none;stroke-linecap:round;stroke-linejoin:round;stroke-width:2;stroke:var(--text-color)">
			<path d="m11 4h-7a2 2 0 0 0-2 2v14a2 2 0 0 0 2 2h14a2 2 0 0 0 2-2v-7" />
			<path d="m18 2.5a2.1 2.1 0 0 1 3 3l-9.5 9.5-4 1 1-4z" />
		</symbol>
		<symbol id="chatIcon" viewBox="0 0 24 24" style="fill:none;stroke-linecap:round;stroke-linejoin:round;stroke-width:2;stroke:var(--text-color)">
			<path d="m21 15a2 2 0 0 1-2 2h-12l-4 4v-16a2 2 0 0 1 2-2h14a2 2 0 0 1 2 2z" />
		</symbol>
		<symbol id="searchIcon" viewBox="0 0 24 24" style="fill:none;stroke-linecap:round;stroke-linejoin:round;stroke-width:2;stroke:var(--text-color)">
			<circle cx="11" cy="11" r="8" />
			<line x1="21" x2="17" y1="21" y2="17" />
		</symbol>
		<symbol id="starIcon" viewBox="0 0 24 24" style="fill:none;stroke-linecap:round;stroke-linejoin:round;stroke-width:2;stroke:var(--text-color)">
			<polygon points="18 21 12 18 5.8 21 7 14 2 9.3 8.9 8.3 12 2 15 8.3 22 9.3 17 14" />
		</symbol>
		<symbol id="homeIcon" viewBox="0 0 24 24" style="fill:none;stroke-linecap:round;stroke-linejoin:round;stroke-width:2;stroke:var(--text-color)">
			<path d="m3 9 9-7 9 7v11a2 2 0 0 1-2 2h-14a2 2 0 0 1-2-2z" />
			<polyline points="9 22 9 12 15 12 15 22" />
		</symbol>
	</defs>
</svg>